<svg xmlns="http://www.w3.org/2000/svg" viewBox="0 0 140 56" role="img" aria-label="Made in India">
  <rect width="140" height="56" rx="8" fill="#FFF7ED"/>
  <g transform="translate(12 10)">
    <circle cx="18" cy="18" r="16" fill="#F77D00"/>
    <path fill="#fff" opacity="0.95" d="M18 8c-4.5 0-7.5 3.2-7.5 7.8 0 3.6 2.2 5.8 5 7.2 1.8.9 2.5 1.8 2.5 3.2 0 1.6-1.3 2.6-3 2.6-1.8 0-3-.9-3.6-2.2l-2.4 1.2c1 2.2 3 3.6 5.8 3.6 3.6 0 6.2-2.2 6.2-5.8 0-3.1-1.8-4.8-4.2-6-2-.9-2.8-1.7-2.8-3.1 0-1.4 1.1-2.3 2.6-2.3 1.5 0 2.4.8 3 1.8l2.2-1.2c-1-1.8-2.8-3-5.6-3Z"/>
    <path fill="#fff" opacity="0.85" d="M14 14h2v2h-2zm8 0h2v2h-2zm-4 10c2.2 0 4-1 4.6-2.6h-9.2c.6 1.6 2.4 2.6 4.6 2.6z"/>
  </g>
  <text x="52" y="24" font-family="Arial,Helvetica,sans-serif" font-size="10" font-weight="700" fill="#C2410C" letter-spacing="0.04em">MADE IN</text>
  <text x="52" y="40" font-family="Arial,Helvetica,sans-serif" font-size="13" font-weight="700" fill="#9A3412" letter-spacing="0.02em">INDIA</text>
</svg>
